<svg xmlns="http://www.w3.org/2000/svg" xmlns:xlink="http://www.w3.org/1999/xlink" width="500" zoomAndPan="magnify" viewBox="0 0 375 374.999991" height="500" preserveAspectRatio="xMidYMid meet" version="1.0"><defs><g/><clipPath id="d0efb81c68"><path d="M 244 144.464844 L 276.246094 144.464844 L 276.246094 172.964844 L 244 172.964844 Z M 244 144.464844 " clip-rule="nonzero"/></clipPath><clipPath id="e9d8a6ac52"><path d="M 265 157 L 297 157 L 297 189 L 265 189 Z M 265 157 " clip-rule="nonzero"/></clipPath><clipPath id="bf320d0ac8"><path d="M 261.957031 162.839844 L 288.664062 152.894531 L 299.917969 183.117188 L 273.210938 193.0625 Z M 261.957031 162.839844 " clip-rule="nonzero"/></clipPath><clipPath id="e058f03b25"><path d="M 261.957031 162.839844 L 288.664062 152.894531 L 299.917969 183.117188 L 273.210938 193.0625 Z M 261.957031 162.839844 " clip-rule="nonzero"/></clipPath><clipPath id="8c9ab51ebd"><path d="M 256.683594 161.800781 L 291.972656 148.65625 L 305.191406 184.160156 L 269.902344 197.300781 Z M 256.683594 161.800781 " clip-rule="nonzero"/></clipPath><clipPath id="798cdc9568"><path d="M 256.683594 161.800781 L 291.972656 148.65625 L 305.191406 184.160156 L 269.902344 197.300781 Z M 256.683594 161.800781 " clip-rule="nonzero"/></clipPath><clipPath id="df77ff54e6"><path d="M 261 183 L 293 183 L 293 214 L 261 214 Z M 261 183 " clip-rule="nonzero"/></clipPath><clipPath id="3915aac09f"><path d="M 257.851562 188.117188 L 284.558594 178.171875 L 295.8125 208.394531 L 269.105469 218.339844 Z M 257.851562 188.117188 " clip-rule="nonzero"/></clipPath><clipPath id="57d3855346"><path d="M 257.851562 188.117188 L 284.558594 178.171875 L 295.8125 208.394531 L 269.105469 218.339844 Z M 257.851562 188.117188 " clip-rule="nonzero"/></clipPath><clipPath id="4f24ab284c"><path d="M 252.578125 187.078125 L 287.867188 173.9375 L 301.085938 209.4375 L 265.796875 222.578125 Z M 252.578125 187.078125 " clip-rule="nonzero"/></clipPath><clipPath id="fdef3f9e91"><path d="M 252.578125 187.078125 L 287.867188 173.9375 L 301.085938 209.4375 L 265.796875 222.578125 Z M 252.578125 187.078125 " clip-rule="nonzero"/></clipPath></defs><g clip-path="url(#d0efb81c68)"><path fill="#00bfff" d="M 269.394531 146.171875 L 272.539062 151.585938 L 275.683594 157.003906 C 276.230469 157.945312 276.230469 159.480469 275.683594 160.421875 L 272.539062 165.839844 L 269.394531 171.253906 C 268.84375 172.199219 267.507812 172.964844 266.414062 172.964844 L 253.832031 172.964844 C 252.734375 172.964844 251.402344 172.199219 250.851562 171.253906 L 247.707031 165.839844 L 244.5625 160.421875 C 244.015625 159.480469 244.015625 157.945312 244.5625 157.003906 L 247.707031 151.585938 L 250.851562 146.171875 C 251.402344 145.230469 252.734375 144.460938 253.832031 144.460938 L 266.414062 144.460938 C 267.507812 144.460938 268.84375 145.230469 269.394531 146.171875 Z M 269.394531 146.171875 " fill-opacity="1" fill-rule="nonzero"/></g><g fill="#000000" fill-opacity="1"><g transform="translate(113.043755, 200.999987)"><g><path d="M 22.484375 4.796875 L 18.875 -0.046875 C 17.8125 0.171875 16.773438 0.28125 15.765625 0.28125 C 13.117188 0.28125 10.695312 -0.332031 8.5 -1.5625 C 6.300781 -2.789062 4.550781 -4.503906 3.25 -6.703125 C 1.957031 -8.898438 1.3125 -11.375 1.3125 -14.125 C 1.3125 -16.863281 1.957031 -19.328125 3.25 -21.515625 C 4.550781 -23.703125 6.300781 -25.410156 8.5 -26.640625 C 10.695312 -27.867188 13.117188 -28.484375 15.765625 -28.484375 C 18.398438 -28.484375 20.816406 -27.867188 23.015625 -26.640625 C 25.210938 -25.410156 26.945312 -23.703125 28.21875 -21.515625 C 29.488281 -19.328125 30.125 -16.863281 30.125 -14.125 C 30.125 -11.71875 29.632812 -9.519531 28.65625 -7.53125 C 27.6875 -5.550781 26.332031 -3.90625 24.59375 -2.59375 L 30.765625 4.796875 Z M 8.3125 -14.125 C 8.3125 -11.644531 8.984375 -9.660156 10.328125 -8.171875 C 11.679688 -6.691406 13.492188 -5.953125 15.765625 -5.953125 C 18.003906 -5.953125 19.796875 -6.695312 21.140625 -8.1875 C 22.484375 -9.6875 23.15625 -11.664062 23.15625 -14.125 C 23.15625 -16.601562 22.484375 -18.582031 21.140625 -20.0625 C 19.796875 -21.539062 18.003906 -22.28125 15.765625 -22.28125 C 13.492188 -22.28125 11.679688 -21.546875 10.328125 -20.078125 C 8.984375 -18.609375 8.3125 -16.625 8.3125 -14.125 Z M 8.3125 -14.125 "/></g></g></g><g fill="#000000" fill-opacity="1"><g transform="translate(144.560622, 200.999987)"><g><path d="M 24.515625 -22.3125 L 24.515625 0 L 17.6875 0 L 17.6875 -3.046875 C 16.988281 -2.054688 16.046875 -1.257812 14.859375 -0.65625 C 13.671875 -0.0625 12.359375 0.234375 10.921875 0.234375 C 9.210938 0.234375 7.703125 -0.144531 6.390625 -0.90625 C 5.085938 -1.664062 4.078125 -2.765625 3.359375 -4.203125 C 2.640625 -5.640625 2.28125 -7.332031 2.28125 -9.28125 L 2.28125 -22.3125 L 9.078125 -22.3125 L 9.078125 -10.203125 C 9.078125 -8.703125 9.460938 -7.539062 10.234375 -6.71875 C 11.015625 -5.894531 12.054688 -5.484375 13.359375 -5.484375 C 14.691406 -5.484375 15.742188 -5.894531 16.515625 -6.71875 C 17.296875 -7.539062 17.6875 -8.703125 17.6875 -10.203125 L 17.6875 -22.3125 Z M 24.515625 -22.3125 "/></g></g></g><g fill="#000000" fill-opacity="1"><g transform="translate(171.517945, 200.999987)"><g><path d="M 1.125 -11.203125 C 1.125 -13.492188 1.554688 -15.503906 2.421875 -17.234375 C 3.285156 -18.972656 4.460938 -20.304688 5.953125 -21.234375 C 7.453125 -22.171875 9.117188 -22.640625 10.953125 -22.640625 C 12.523438 -22.640625 13.90625 -22.316406 15.09375 -21.671875 C 16.28125 -21.035156 17.195312 -20.195312 17.84375 -19.15625 L 17.84375 -22.3125 L 24.6875 -22.3125 L 24.6875 0 L 17.84375 0 L 17.84375 -3.15625 C 17.175781 -2.113281 16.25 -1.273438 15.0625 -0.640625 C 13.875 -0.00390625 12.492188 0.3125 10.921875 0.3125 C 9.109375 0.3125 7.453125 -0.15625 5.953125 -1.09375 C 4.460938 -2.039062 3.285156 -3.390625 2.421875 -5.140625 C 1.554688 -6.890625 1.125 -8.910156 1.125 -11.203125 Z M 17.84375 -11.15625 C 17.84375 -12.863281 17.367188 -14.210938 16.421875 -15.203125 C 15.472656 -16.191406 14.316406 -16.6875 12.953125 -16.6875 C 11.597656 -16.6875 10.445312 -16.195312 9.5 -15.21875 C 8.550781 -14.25 8.078125 -12.910156 8.078125 -11.203125 C 8.078125 -9.492188 8.550781 -8.140625 9.5 -7.140625 C 10.445312 -6.140625 11.597656 -5.640625 12.953125 -5.640625 C 14.316406 -5.640625 15.472656 -6.128906 16.421875 -7.109375 C 17.367188 -8.097656 17.84375 -9.445312 17.84375 -11.15625 Z M 17.84375 -11.15625 "/></g></g></g><g fill="#000000" fill-opacity="1"><g transform="translate(198.675242, 200.999987)"><g><path d="M 9.3125 -29.59375 L 9.3125 0 L 2.484375 0 L 2.484375 -29.59375 Z M 9.3125 -29.59375 "/></g></g></g><g fill="#000000" fill-opacity="1"><g transform="translate(210.474066, 200.999987)"><g><path d="M 5.921875 -24.640625 C 4.722656 -24.640625 3.742188 -24.992188 2.984375 -25.703125 C 2.222656 -26.410156 1.84375 -27.28125 1.84375 -28.3125 C 1.84375 -29.382812 2.222656 -30.273438 2.984375 -30.984375 C 3.742188 -31.691406 4.722656 -32.046875 5.921875 -32.046875 C 7.097656 -32.046875 8.0625 -31.691406 8.8125 -30.984375 C 9.570312 -30.273438 9.953125 -29.382812 9.953125 -28.3125 C 9.953125 -27.28125 9.570312 -26.410156 8.8125 -25.703125 C 8.0625 -24.992188 7.097656 -24.640625 5.921875 -24.640625 Z M 9.3125 -22.3125 L 9.3125 0 L 2.484375 0 L 2.484375 -22.3125 Z M 9.3125 -22.3125 "/></g></g></g><g fill="#000000" fill-opacity="1"><g transform="translate(222.272889, 200.999987)"><g><path d="M 13.6875 -16.640625 L 10 -16.640625 L 10 0 L 3.15625 0 L 3.15625 -16.640625 L 0.6875 -16.640625 L 0.6875 -22.3125 L 3.15625 -22.3125 L 3.15625 -22.953125 C 3.15625 -25.703125 3.941406 -27.789062 5.515625 -29.21875 C 7.085938 -30.644531 9.394531 -31.359375 12.4375 -31.359375 C 12.945312 -31.359375 13.320312 -31.34375 13.5625 -31.3125 L 13.5625 -25.515625 C 12.25 -25.597656 11.328125 -25.410156 10.796875 -24.953125 C 10.265625 -24.503906 10 -23.691406 10 -22.515625 L 10 -22.3125 L 13.6875 -22.3125 Z M 13.6875 -16.640625 "/></g></g></g><g fill="#000000" fill-opacity="1"><g transform="translate(236.671456, 200.999987)"><g><path d="M 25.28125 -22.3125 L 11.28125 10.59375 L 3.921875 10.59375 L 9.046875 -0.765625 L -0.046875 -22.3125 L 7.59375 -22.3125 L 12.765625 -8.359375 L 17.875 -22.3125 Z M 25.28125 -22.3125 "/></g></g></g><g clip-path="url(#e9d8a6ac52)"><g clip-path="url(#bf320d0ac8)"><g clip-path="url(#e058f03b25)"><g clip-path="url(#8c9ab51ebd)"><g clip-path="url(#798cdc9568)"><path fill="#00bfff" d="M 295.925781 177.289062 L 291.949219 182.128906 L 287.972656 186.964844 C 287.277344 187.808594 285.84375 188.34375 284.765625 188.15625 L 278.59375 187.101562 L 272.421875 186.042969 C 271.34375 185.859375 270.160156 184.875 269.777344 183.847656 L 265.386719 172.058594 C 265.003906 171.03125 265.257812 169.511719 265.949219 168.667969 L 269.929688 163.832031 L 273.90625 158.992188 C 274.597656 158.148438 276.035156 157.613281 277.109375 157.800781 L 283.285156 158.855469 L 289.457031 159.914062 C 290.53125 160.097656 291.714844 161.082031 292.097656 162.109375 L 294.292969 168.003906 L 296.488281 173.902344 C 296.871094 174.929688 296.617188 176.445312 295.925781 177.289062 Z M 295.925781 177.289062 " fill-opacity="1" fill-rule="nonzero"/></g></g></g></g></g><g clip-path="url(#df77ff54e6)"><g clip-path="url(#3915aac09f)"><g clip-path="url(#57d3855346)"><g clip-path="url(#4f24ab284c)"><g clip-path="url(#fdef3f9e91)"><path fill="#00bfff" d="M 291.820312 202.566406 L 287.84375 207.40625 L 283.863281 212.242188 C 283.171875 213.085938 281.734375 213.621094 280.660156 213.4375 L 268.316406 211.320312 C 267.238281 211.136719 266.054688 210.152344 265.671875 209.125 L 261.28125 197.335938 C 260.898438 196.308594 261.152344 194.789062 261.84375 193.945312 L 265.820312 189.109375 L 269.800781 184.269531 C 270.492188 183.429688 271.929688 182.894531 273.003906 183.078125 L 279.175781 184.136719 L 285.347656 185.191406 C 286.425781 185.378906 287.609375 186.363281 287.992188 187.390625 L 292.382812 199.179688 C 292.765625 200.207031 292.511719 201.726562 291.820312 202.566406 Z M 291.820312 202.566406 " fill-opacity="1" fill-rule="nonzero"/></g></g></g></g></g></svg>