<svg xmlns="http://www.w3.org/2000/svg" xmlns:xlink="http://www.w3.org/1999/xlink" width="170" zoomAndPan="magnify" viewBox="0 0 127.5 89.999999" height="120" preserveAspectRatio="xMidYMid meet" version="1.0"><defs><clipPath id="8b77f52469"><path d="M 0.292969 0.175781 L 125 0.175781 L 125 20 L 0.292969 20 Z M 0.292969 0.175781 " clip-rule="nonzero"/></clipPath><clipPath id="bd90557f7d"><path d="M 0.292969 35 L 125 35 L 125 55 L 0.292969 55 Z M 0.292969 35 " clip-rule="nonzero"/></clipPath><clipPath id="22129e6f84"><path d="M 0.292969 71 L 125 71 L 125 89.824219 L 0.292969 89.824219 Z M 0.292969 71 " clip-rule="nonzero"/></clipPath></defs><g clip-path="url(#8b77f52469)"><path fill="#020203" d="M 115.226562 19.222656 L 9.804688 19.222656 C 4.613281 19.222656 0.40625 15.027344 0.40625 9.847656 C 0.332031 3.738281 6.132812 0.199219 9.835938 0.472656 C 12.117188 0.480469 115.15625 0.46875 115.382812 0.476562 C 127.699219 1.136719 127.628906 18.730469 115.226562 19.222656 Z M 115.226562 19.222656 " fill-opacity="1" fill-rule="nonzero"/></g><g clip-path="url(#bd90557f7d)"><path fill="#020203" d="M 115.226562 54.710938 L 9.804688 54.710938 C 4.613281 54.710938 0.40625 50.515625 0.40625 45.339844 C 0.332031 39.226562 6.132812 35.691406 9.835938 35.964844 C 12.117188 35.96875 115.15625 35.957031 115.382812 35.964844 C 127.699219 36.625 127.628906 54.21875 115.226562 54.710938 Z M 115.226562 54.710938 " fill-opacity="1" fill-rule="nonzero"/></g><g clip-path="url(#22129e6f84)"><path fill="#020203" d="M 115.226562 90.203125 L 9.804688 90.203125 C 4.613281 90.203125 0.40625 86.003906 0.40625 80.828125 C 0.332031 74.71875 6.132812 71.179688 9.835938 71.453125 C 12.117188 71.460938 115.15625 71.445312 115.382812 71.453125 C 127.699219 72.117188 127.628906 89.710938 115.226562 90.203125 Z M 115.226562 90.203125 " fill-opacity="1" fill-rule="nonzero"/></g></svg>