<svg xmlns="http://www.w3.org/2000/svg" xmlns:xlink="http://www.w3.org/1999/xlink" width="141" zoomAndPan="magnify" viewBox="0 0 105.75 42.75" height="57" preserveAspectRatio="xMidYMid meet" version="1.0"><defs><g/><clipPath id="0365a3a8ea"><path d="M 73.707031 0.0742188 L 91.644531 0.0742188 L 91.644531 16.519531 L 73.707031 16.519531 Z M 73.707031 0.0742188 " clip-rule="nonzero"/></clipPath><clipPath id="0d175a12cc"><path d="M 85 7 L 104 7 L 104 25 L 85 25 Z M 85 7 " clip-rule="nonzero"/></clipPath><clipPath id="84ac3c2d71"><path d="M 83.773438 10.84375 L 99.183594 5.105469 L 105.441406 21.914062 L 90.035156 27.652344 Z M 83.773438 10.84375 " clip-rule="nonzero"/></clipPath><clipPath id="f6992f99fc"><path d="M 83.773438 10.84375 L 99.183594 5.105469 L 105.441406 21.914062 L 90.035156 27.652344 Z M 83.773438 10.84375 " clip-rule="nonzero"/></clipPath><clipPath id="51bbd1e77b"><path d="M 80.753906 10.296875 L 101.113281 2.714844 L 108.464844 22.460938 L 88.105469 30.042969 Z M 80.753906 10.296875 " clip-rule="nonzero"/></clipPath><clipPath id="960b3e2d8b"><path d="M 80.753906 10.296875 L 101.113281 2.714844 L 108.464844 22.460938 L 88.105469 30.042969 Z M 80.753906 10.296875 " clip-rule="nonzero"/></clipPath><clipPath id="753165634e"><path d="M 83 22 L 102 22 L 102 40 L 83 40 Z M 83 22 " clip-rule="nonzero"/></clipPath><clipPath id="5b8d45f806"><path d="M 81.472656 25.011719 L 96.882812 19.273438 L 103.140625 36.082031 L 87.730469 41.820312 Z M 81.472656 25.011719 " clip-rule="nonzero"/></clipPath><clipPath id="8a01302cdb"><path d="M 81.472656 25.011719 L 96.882812 19.273438 L 103.140625 36.082031 L 87.730469 41.820312 Z M 81.472656 25.011719 " clip-rule="nonzero"/></clipPath><clipPath id="504039dffb"><path d="M 78.449219 24.464844 L 98.808594 16.882812 L 106.164062 36.628906 L 85.804688 44.210938 Z M 78.449219 24.464844 " clip-rule="nonzero"/></clipPath><clipPath id="ef3237a211"><path d="M 78.449219 24.464844 L 98.808594 16.882812 L 106.164062 36.628906 L 85.804688 44.210938 Z M 78.449219 24.464844 " clip-rule="nonzero"/></clipPath></defs><g clip-path="url(#0365a3a8ea)"><path fill="#00bfff" d="M 87.832031 1.0625 L 91.332031 7.3125 C 91.636719 7.855469 91.636719 8.738281 91.332031 9.285156 L 89.582031 12.40625 L 87.832031 15.53125 C 87.527344 16.078125 86.785156 16.519531 86.175781 16.519531 L 79.179688 16.519531 C 78.566406 16.519531 77.824219 16.078125 77.519531 15.53125 L 75.769531 12.40625 L 74.019531 9.285156 C 73.714844 8.738281 73.714844 7.855469 74.019531 7.3125 L 77.519531 1.0625 C 77.824219 0.515625 78.566406 0.0742188 79.179688 0.0742188 L 86.175781 0.0742188 C 86.785156 0.0742188 87.527344 0.515625 87.832031 1.0625 Z M 87.832031 1.0625 " fill-opacity="1" fill-rule="nonzero"/></g><g fill="#000000" fill-opacity="1"><g transform="translate(0.301088, 32.231723)"><g><path d="M 12.59375 2.6875 L 10.578125 -0.015625 C 9.984375 0.0976562 9.398438 0.15625 8.828125 0.15625 C 7.347656 0.15625 5.992188 -0.1875 4.765625 -0.875 C 3.535156 -1.5625 2.554688 -2.519531 1.828125 -3.75 C 1.097656 -4.988281 0.734375 -6.378906 0.734375 -7.921875 C 0.734375 -9.453125 1.097656 -10.832031 1.828125 -12.0625 C 2.554688 -13.289062 3.535156 -14.25 4.765625 -14.9375 C 5.992188 -15.625 7.347656 -15.96875 8.828125 -15.96875 C 10.304688 -15.96875 11.660156 -15.625 12.890625 -14.9375 C 14.128906 -14.25 15.101562 -13.289062 15.8125 -12.0625 C 16.53125 -10.832031 16.890625 -9.453125 16.890625 -7.921875 C 16.890625 -6.566406 16.613281 -5.332031 16.0625 -4.21875 C 15.519531 -3.113281 14.765625 -2.191406 13.796875 -1.453125 L 17.25 2.6875 Z M 4.65625 -7.921875 C 4.65625 -6.523438 5.03125 -5.410156 5.78125 -4.578125 C 6.539062 -3.753906 7.554688 -3.34375 8.828125 -3.34375 C 10.085938 -3.34375 11.09375 -3.757812 11.84375 -4.59375 C 12.601562 -5.4375 12.984375 -6.546875 12.984375 -7.921875 C 12.984375 -9.304688 12.601562 -10.410156 11.84375 -11.234375 C 11.09375 -12.066406 10.085938 -12.484375 8.828125 -12.484375 C 7.554688 -12.484375 6.539062 -12.070312 5.78125 -11.25 C 5.03125 -10.425781 4.65625 -9.316406 4.65625 -7.921875 Z M 4.65625 -7.921875 "/></g></g></g><g fill="#000000" fill-opacity="1"><g transform="translate(17.967921, 32.231723)"><g><path d="M 13.75 -12.515625 L 13.75 0 L 9.90625 0 L 9.90625 -1.703125 C 9.519531 -1.148438 8.992188 -0.703125 8.328125 -0.359375 C 7.660156 -0.0234375 6.925781 0.140625 6.125 0.140625 C 5.164062 0.140625 4.316406 -0.0703125 3.578125 -0.5 C 2.847656 -0.925781 2.28125 -1.539062 1.875 -2.34375 C 1.476562 -3.15625 1.28125 -4.109375 1.28125 -5.203125 L 1.28125 -12.515625 L 5.09375 -12.515625 L 5.09375 -5.71875 C 5.09375 -4.882812 5.304688 -4.234375 5.734375 -3.765625 C 6.171875 -3.304688 6.753906 -3.078125 7.484375 -3.078125 C 8.234375 -3.078125 8.820312 -3.304688 9.25 -3.765625 C 9.6875 -4.234375 9.90625 -4.882812 9.90625 -5.71875 L 9.90625 -12.515625 Z M 13.75 -12.515625 "/></g></g></g><g fill="#000000" fill-opacity="1"><g transform="translate(33.078894, 32.231723)"><g><path d="M 0.625 -6.28125 C 0.625 -7.5625 0.863281 -8.6875 1.34375 -9.65625 C 1.832031 -10.632812 2.492188 -11.382812 3.328125 -11.90625 C 4.171875 -12.425781 5.109375 -12.6875 6.140625 -12.6875 C 7.023438 -12.6875 7.800781 -12.503906 8.46875 -12.140625 C 9.132812 -11.785156 9.644531 -11.316406 10 -10.734375 L 10 -12.515625 L 13.828125 -12.515625 L 13.828125 0 L 10 0 L 10 -1.765625 C 9.625 -1.179688 9.101562 -0.710938 8.4375 -0.359375 C 7.769531 -0.00390625 7 0.171875 6.125 0.171875 C 5.101562 0.171875 4.171875 -0.0859375 3.328125 -0.609375 C 2.492188 -1.140625 1.832031 -1.894531 1.34375 -2.875 C 0.863281 -3.851562 0.625 -4.988281 0.625 -6.28125 Z M 10 -6.25 C 10 -7.207031 9.734375 -7.960938 9.203125 -8.515625 C 8.671875 -9.066406 8.023438 -9.34375 7.265625 -9.34375 C 6.503906 -9.34375 5.859375 -9.070312 5.328125 -8.53125 C 4.796875 -7.988281 4.53125 -7.238281 4.53125 -6.28125 C 4.53125 -5.320312 4.796875 -4.5625 5.328125 -4 C 5.859375 -3.4375 6.503906 -3.15625 7.265625 -3.15625 C 8.023438 -3.15625 8.671875 -3.429688 9.203125 -3.984375 C 9.734375 -4.546875 10 -5.300781 10 -6.25 Z M 10 -6.25 "/></g></g></g><g fill="#000000" fill-opacity="1"><g transform="translate(48.301963, 32.231723)"><g><path d="M 5.21875 -16.59375 L 5.21875 0 L 1.390625 0 L 1.390625 -16.59375 Z M 5.21875 -16.59375 "/></g></g></g><g fill="#000000" fill-opacity="1"><g transform="translate(54.915814, 32.231723)"><g><path d="M 3.3125 -13.8125 C 2.644531 -13.8125 2.097656 -14.007812 1.671875 -14.40625 C 1.242188 -14.800781 1.03125 -15.289062 1.03125 -15.875 C 1.03125 -16.46875 1.242188 -16.960938 1.671875 -17.359375 C 2.097656 -17.753906 2.644531 -17.953125 3.3125 -17.953125 C 3.976562 -17.953125 4.519531 -17.753906 4.9375 -17.359375 C 5.363281 -16.960938 5.578125 -16.46875 5.578125 -15.875 C 5.578125 -15.289062 5.363281 -14.800781 4.9375 -14.40625 C 4.519531 -14.007812 3.976562 -13.8125 3.3125 -13.8125 Z M 5.21875 -12.515625 L 5.21875 0 L 1.390625 0 L 1.390625 -12.515625 Z M 5.21875 -12.515625 "/></g></g></g><g fill="#000000" fill-opacity="1"><g transform="translate(61.529664, 32.231723)"><g><path d="M 7.671875 -9.328125 L 5.609375 -9.328125 L 5.609375 0 L 1.765625 0 L 1.765625 -9.328125 L 0.375 -9.328125 L 0.375 -12.515625 L 1.765625 -12.515625 L 1.765625 -12.875 C 1.765625 -14.40625 2.207031 -15.570312 3.09375 -16.375 C 3.976562 -17.175781 5.269531 -17.578125 6.96875 -17.578125 C 7.257812 -17.578125 7.46875 -17.570312 7.59375 -17.5625 L 7.59375 -14.3125 C 6.863281 -14.351562 6.347656 -14.242188 6.046875 -13.984375 C 5.753906 -13.734375 5.609375 -13.28125 5.609375 -12.625 L 5.609375 -12.515625 L 7.671875 -12.515625 Z M 7.671875 -9.328125 "/></g></g></g><g fill="#000000" fill-opacity="1"><g transform="translate(69.600805, 32.231723)"><g><path d="M 14.171875 -12.515625 L 6.328125 5.9375 L 2.203125 5.9375 L 5.0625 -0.421875 L -0.015625 -12.515625 L 4.265625 -12.515625 L 7.15625 -4.6875 L 10.015625 -12.515625 Z M 14.171875 -12.515625 "/></g></g></g><g clip-path="url(#0d175a12cc)"><g clip-path="url(#84ac3c2d71)"><g clip-path="url(#f6992f99fc)"><g clip-path="url(#51bbd1e77b)"><g clip-path="url(#960b3e2d8b)"><path fill="#00bfff" d="M 103.1875 18.6875 L 100.871094 21.414062 L 98.554688 24.144531 C 98.148438 24.621094 97.320312 24.929688 96.703125 24.832031 L 93.167969 24.285156 L 89.628906 23.734375 C 89.011719 23.640625 88.335938 23.097656 88.125 22.527344 L 86.902344 19.246094 L 85.683594 15.96875 C 85.46875 15.394531 85.625 14.546875 86.027344 14.070312 L 88.347656 11.339844 L 90.664062 8.609375 C 91.066406 8.132812 91.894531 7.824219 92.511719 7.921875 L 96.050781 8.472656 L 99.589844 9.019531 C 100.207031 9.117188 100.878906 9.65625 101.09375 10.230469 L 102.3125 13.507812 L 103.535156 16.789062 C 103.746094 17.359375 103.59375 18.210938 103.1875 18.6875 Z M 103.1875 18.6875 " fill-opacity="1" fill-rule="nonzero"/></g></g></g></g></g><g clip-path="url(#753165634e)"><g clip-path="url(#5b8d45f806)"><g clip-path="url(#8a01302cdb)"><g clip-path="url(#504039dffb)"><g clip-path="url(#ef3237a211)"><path fill="#00bfff" d="M 100.886719 32.855469 L 96.253906 38.316406 C 95.847656 38.789062 95.019531 39.097656 94.402344 39.003906 L 90.863281 38.453125 L 87.328125 37.90625 C 86.710938 37.808594 86.035156 37.265625 85.824219 36.695312 L 84.601562 33.417969 L 83.382812 30.136719 C 83.167969 29.566406 83.324219 28.714844 83.726562 28.238281 L 86.042969 25.511719 L 88.363281 22.78125 C 88.765625 22.304688 89.59375 21.996094 90.210938 22.089844 L 97.289062 23.191406 C 97.90625 23.285156 98.578125 23.828125 98.792969 24.398438 L 100.011719 27.679688 L 101.234375 30.957031 C 101.445312 31.527344 101.289062 32.378906 100.886719 32.855469 Z M 100.886719 32.855469 " fill-opacity="1" fill-rule="nonzero"/></g></g></g></g></g></svg>